<?xml version="1.0" encoding="UTF-8" standalone="no"?>
<!DOCTYPE svg PUBLIC "-//W3C//DTD SVG 1.1//EN" "http://www.w3.org/Graphics/SVG/1.1/DTD/svg11.dtd">
<svg width="100%" height="100%" viewBox="0 0 452 1024" version="1.1" xmlns="http://www.w3.org/2000/svg" xmlns:xlink="http://www.w3.org/1999/xlink" xml:space="preserve" xmlns:serif="http://www.serif.com/" style="fill-rule:evenodd;clip-rule:evenodd;stroke-linejoin:round;stroke-miterlimit:2;">
    <g transform="matrix(1,0,0,1,-286,0)">
        <g id="_2" serif:id="2" transform="matrix(1,0,0,1,-8430.36,-2197.33)">
            <path d="M8716.67,2394.64L8897.6,2394.64C8897.6,2394.64 9018.35,2385.59 9036.41,2431.53C9085.33,2555.99 9098.17,2575.13 9068.35,2619.51C9038.54,2663.89 8947.12,2740.07 8947.12,2740.07L9141.39,2732.45L9168.05,2925.16L8822.41,2925.16L8754.64,2585.15C8774.17,2583.65 8787.14,2582.81 8799.25,2581.78C8820.95,2579.94 8831.44,2581.39 8828.63,2559.35C8826.67,2543.93 8814.53,2543.01 8795.94,2543.33C8783.19,2543.55 8767.07,2544.34 8746.47,2544.15L8716.67,2394.64Z"/>
        </g>
    </g>
</svg>
