<?xml version="1.0" encoding="UTF-8" standalone="no"?>
<!DOCTYPE svg PUBLIC "-//W3C//DTD SVG 1.1//EN" "http://www.w3.org/Graphics/SVG/1.1/DTD/svg11.dtd">
<svg width="100%" height="100%" viewBox="0 0 376 1024" version="1.1" xmlns="http://www.w3.org/2000/svg" xmlns:xlink="http://www.w3.org/1999/xlink" xml:space="preserve" xmlns:serif="http://www.serif.com/" style="fill-rule:evenodd;clip-rule:evenodd;stroke-linejoin:round;stroke-miterlimit:2;">
    <g transform="matrix(1,0,0,1,-324,0)">
        <g id="_3" serif:id="3" transform="matrix(1,0,0,1,-8901.74,-2197.33)">
            <path d="M9225.88,2394.64L9242.94,2515.41C9242.94,2515.41 9265.02,2508.83 9282.45,2504.08C9295.69,2500.48 9304.86,2505.41 9306.33,2516.62C9307.55,2525.96 9302.87,2535.96 9290.27,2540.77C9267.62,2549.41 9238.07,2561.72 9238.07,2561.72L9255.13,2659.54C9255.13,2659.54 9296.81,2655.6 9324.87,2651.18C9342.82,2648.35 9355.98,2654.13 9358.74,2671.9C9360.17,2681.07 9354.83,2690.78 9339.05,2693.9C9306.39,2700.36 9253.91,2711.65 9253.91,2711.65L9267.32,2907.72C9267.32,2907.72 9394.09,2916.07 9445.28,2907.72C9496.48,2899.37 9598.87,2877.43 9601.31,2799.42C9603.75,2721.41 9590.34,2672.37 9570.84,2641.43C9551.33,2610.48 9466.01,2619.51 9466.01,2619.51C9466.01,2619.51 9536.7,2603.17 9528.17,2528.81C9519.64,2454.46 9490.39,2422.36 9476.98,2393.92C9463.57,2365.48 9225.88,2394.64 9225.88,2394.64Z"/>
        </g>
    </g>
</svg>
