<?xml version="1.0" encoding="UTF-8" standalone="no"?>
<!DOCTYPE svg PUBLIC "-//W3C//DTD SVG 1.1//EN" "http://www.w3.org/Graphics/SVG/1.1/DTD/svg11.dtd">
<svg width="100%" height="100%" viewBox="0 0 348 1024" version="1.1" xmlns="http://www.w3.org/2000/svg" xmlns:xlink="http://www.w3.org/1999/xlink" xml:space="preserve" xmlns:serif="http://www.serif.com/" style="fill-rule:evenodd;clip-rule:evenodd;stroke-linejoin:round;stroke-miterlimit:2;">
    <g transform="matrix(1,0,0,1,-338,0)">
        <g id="_6" serif:id="6" transform="matrix(1,0,0,1,-10170.3,-2203.83)">
            <path d="M10790.7,2405.81L10799.9,2553.61L10655.1,2556.65L10667.3,2632.84C10667.3,2632.84 10766.3,2608.46 10796.8,2626.74C10827.3,2645.03 10845.6,2652.64 10847.1,2686.16C10848.6,2719.68 10885.2,2888.81 10795.3,2901C10705.4,2913.19 10652.5,2920.97 10597.2,2867.48C10550,2821.77 10507.3,2763.87 10508.8,2637.41C10510.2,2525.35 10531.2,2488.49 10565.2,2440.85C10618.5,2366.19 10790.7,2405.81 10790.7,2405.81Z"/>
        </g>
    </g>
</svg>
