<?xml version="1.0" encoding="UTF-8" standalone="no"?>
<!DOCTYPE svg PUBLIC "-//W3C//DTD SVG 1.1//EN" "http://www.w3.org/Graphics/SVG/1.1/DTD/svg11.dtd">
<svg width="100%" height="100%" viewBox="0 0 340 1024" version="1.1" xmlns="http://www.w3.org/2000/svg" xmlns:xlink="http://www.w3.org/1999/xlink" xml:space="preserve" xmlns:serif="http://www.serif.com/" style="fill-rule:evenodd;clip-rule:evenodd;stroke-linejoin:round;stroke-miterlimit:2;">
    <g transform="matrix(1,0,0,1,-342,0)">
        <g id="_8" serif:id="8" transform="matrix(1,0,0,1,-9839.81,-2215)">
            <path d="M10266.4,2404.02C10351.8,2390.31 10504.3,2381.7 10480.7,2514.81C10461.7,2621.46 10425.7,2616.05 10425.7,2616.05C10486.1,2621.22 10522,2726.48 10521.3,2818.42C10521.2,2843.25 10504.3,2877.17 10487.9,2897.74C10454.1,2940.19 10277.9,2935.41 10235.6,2894.01C10224.6,2883.2 10202.6,2844.77 10197.8,2785.43C10194.5,2746.02 10189.7,2661.63 10229.9,2623.63C10131,2523.76 10207.7,2413.45 10266.4,2404.02Z"/>
        </g>
    </g>
</svg>
