<?xml version="1.0" encoding="UTF-8" standalone="no"?>
<!DOCTYPE svg PUBLIC "-//W3C//DTD SVG 1.1//EN" "http://www.w3.org/Graphics/SVG/1.1/DTD/svg11.dtd">
<svg width="100%" height="100%" viewBox="0 0 300 1024" version="1.1" xmlns="http://www.w3.org/2000/svg" xmlns:xlink="http://www.w3.org/1999/xlink" xml:space="preserve" xmlns:serif="http://www.serif.com/" style="fill-rule:evenodd;clip-rule:evenodd;stroke-linejoin:round;stroke-miterlimit:2;">
    <g transform="matrix(1,0,0,1,-362,0)">
        <g id="_9" serif:id="9" transform="matrix(1,0,0,1,-10173.2,-2211.28)">
            <path d="M10769,2409.22C10793.6,2429.59 10802.7,2451.05 10808.9,2483.24C10825.2,2567.08 10832,2687.62 10834.5,2787.09C10833.1,2839.87 10818.1,2875.5 10784.2,2887.65L10572.4,2904.41L10551.1,2771.85L10557.2,2656.05L10630.3,2646.91L10625.8,2621.01L10554.1,2613.39C10554.1,2613.39 10529.8,2570.28 10537.4,2508.26C10546.6,2432.5 10573.9,2400.08 10633.4,2395.51C10694.2,2390.83 10737.6,2383.28 10769,2409.22Z"/>
        </g>
    </g>
</svg>
