<?xml version="1.0" encoding="UTF-8" standalone="no"?>
<!DOCTYPE svg PUBLIC "-//W3C//DTD SVG 1.1//EN" "http://www.w3.org/Graphics/SVG/1.1/DTD/svg11.dtd">
<svg width="100%" height="100%" viewBox="0 0 446 1024" version="1.1" xmlns="http://www.w3.org/2000/svg" xmlns:xlink="http://www.w3.org/1999/xlink" xml:space="preserve" xmlns:serif="http://www.serif.com/" style="fill-rule:evenodd;clip-rule:evenodd;stroke-linejoin:round;stroke-miterlimit:2;">
    <g transform="matrix(1,0,0,1,-289,0)">
        <g id="ae_small" transform="matrix(1.00095,0,0,1.00095,-8255.46,-5570.41)">
            <path d="M8729.18,6055.44C8753.6,6003.43 8800.68,5975.84 8848.27,5973.96C8902.55,5971.81 8979.75,5992.09 8981.1,6080.49C8982.3,6158.56 8898.71,6170.77 8865.94,6172.55L8852.99,6172.8C8852.99,6172.8 8857.95,6172.99 8865.94,6172.55L8975.53,6170.41L8975.82,6263.39C8941.1,6261.6 8805.63,6278.74 8747.77,6248.14C8747.77,6248.14 8561.56,6322.38 8539.27,6150.04C8529.35,6073.28 8556.19,6009.94 8603.19,5987.09C8657.71,5960.57 8715.82,5979.93 8715.82,5979.93L8729.18,6055.44Z"/>
        </g>
    </g>
</svg>
