<?xml version="1.0" encoding="UTF-8" standalone="no"?>
<!DOCTYPE svg PUBLIC "-//W3C//DTD SVG 1.1//EN" "http://www.w3.org/Graphics/SVG/1.1/DTD/svg11.dtd">
<svg width="100%" height="100%" viewBox="0 0 442 1024" version="1.1" xmlns="http://www.w3.org/2000/svg" xmlns:xlink="http://www.w3.org/1999/xlink" xml:space="preserve" xmlns:serif="http://www.serif.com/" style="fill-rule:evenodd;clip-rule:evenodd;stroke-linejoin:round;stroke-miterlimit:2;">
    <g transform="matrix(1,0,0,1,-291,0)">
        <g id="ampersand" transform="matrix(0.56233,0,0,0.57048,-3225.37,-3596.67)">
            <path d="M6930.6,7477.47L7038.67,7392.33L6716.11,7045.21C6716.11,7045.21 6909.32,6924.05 6892.94,6784.87C6876.57,6645.69 6747.61,6626.52 6611.32,6626.05C6362.32,6625.17 6387.64,6938.56 6483.6,7014.1C6483.6,7014.1 6097.19,7276.08 6326.42,7461.1C6555.65,7646.12 6840.55,7410.34 6840.55,7410.34L6930.6,7477.47ZM6572.02,7123.8L6737.39,7315.37C6737.39,7315.37 6562.2,7467.65 6462.32,7364.49C6339.86,7238.02 6572.02,7123.8 6572.02,7123.8ZM6621.14,6925.68C6621.14,6925.68 6812.71,6815.98 6729.21,6760.31C6645.7,6704.64 6586.76,6719.38 6562.2,6776.68C6537.64,6833.99 6621.14,6925.68 6621.14,6925.68Z"/>
        </g>
    </g>
</svg>
