<?xml version="1.0" encoding="UTF-8" standalone="no"?>
<!DOCTYPE svg PUBLIC "-//W3C//DTD SVG 1.1//EN" "http://www.w3.org/Graphics/SVG/1.1/DTD/svg11.dtd">
<svg width="100%" height="100%" viewBox="0 0 290 1024" version="1.1" xmlns="http://www.w3.org/2000/svg" xmlns:xlink="http://www.w3.org/1999/xlink" xml:space="preserve" xmlns:serif="http://www.serif.com/" style="fill-rule:evenodd;clip-rule:evenodd;stroke-linejoin:round;stroke-miterlimit:2;">
    <g transform="matrix(1,0,0,1,-367,0)">
        <g id="aring_small" transform="matrix(1,0,0,1,-1064.7,-9015.42)">
            <path d="M1531.52,9430.91C1517.47,9416.9 1512.22,9380.4 1530.04,9357.32C1552.45,9328.31 1583.65,9322.4 1614.65,9347.76C1642.8,9370.78 1637.16,9407.64 1623.01,9425.13C1649.49,9427.47 1668.82,9431.73 1668.82,9431.73L1720.87,9698.35C1720.87,9698.35 1457.37,9777.19 1434.14,9597.59C1423.8,9517.59 1464.75,9461.5 1513.72,9437.68C1519.3,9434.97 1525.28,9432.73 1531.52,9430.91Z"/>
        </g>
    </g>
</svg>
