<?xml version="1.0" encoding="UTF-8" standalone="no"?>
<!DOCTYPE svg PUBLIC "-//W3C//DTD SVG 1.1//EN" "http://www.w3.org/Graphics/SVG/1.1/DTD/svg11.dtd">
<svg width="100%" height="100%" viewBox="0 0 358 1024" version="1.1" xmlns="http://www.w3.org/2000/svg" xmlns:xlink="http://www.w3.org/1999/xlink" xml:space="preserve" xmlns:serif="http://www.serif.com/" style="fill-rule:evenodd;clip-rule:evenodd;stroke-linejoin:round;stroke-miterlimit:2;">
    <g transform="matrix(1,0,0,1,-333,0)">
        <g id="asterisk" transform="matrix(1,0,0,1,-5737.79,-3297)">
            <path d="M6306.49,3433.87L6378.95,3360.93L6428.77,3403.37L6345.26,3484.64L6410.32,3486.41L6408.47,3571.28L6333.99,3569.6L6415.85,3652.47L6380.8,3678.3L6325.24,3626.34L6332.82,3704.14L6223.81,3711.52L6217.97,3608.51L6135.39,3694.91L6078.19,3669.08L6175.2,3566.01L6081.88,3563.9L6070.81,3477.18L6168.6,3479.84L6094.32,3405.33L6144.14,3370.27L6208.58,3442.64L6203.11,3346.17L6297.76,3344.33L6306.49,3433.87Z"/>
        </g>
    </g>
</svg>
