<?xml version="1.0" encoding="UTF-8" standalone="no"?>
<!DOCTYPE svg PUBLIC "-//W3C//DTD SVG 1.1//EN" "http://www.w3.org/Graphics/SVG/1.1/DTD/svg11.dtd">
<svg width="100%" height="100%" viewBox="0 0 616 1024" version="1.1" xmlns="http://www.w3.org/2000/svg" xmlns:xlink="http://www.w3.org/1999/xlink" xml:space="preserve" xmlns:serif="http://www.serif.com/" style="fill-rule:evenodd;clip-rule:evenodd;stroke-linejoin:round;stroke-miterlimit:2;">
    <g transform="matrix(1,0,0,1,-204,0)">
        <g id="at" transform="matrix(1,0,0,1,-6977.21,-6761.72)">
            <path d="M7588.5,7106.55C7611.33,7168.79 7638.87,7204.25 7658.37,7184.62C7704.31,7138.37 7739.61,7028.21 7706.77,6969.32C7673.93,6910.42 7582.01,6818.89 7461.33,6831.26C7388.35,6838.74 7269.89,6973.13 7280.94,7065.62C7303.74,7256.52 7497.85,7402.99 7715.97,7328.72L7735.45,7417C7618.24,7487.76 7463.9,7476.61 7329.26,7371.06C7235.95,7297.91 7165.2,7093.62 7185.3,6992.32C7205.39,6891.03 7276.31,6781.8 7449.83,6763.28C7609.56,6746.24 7783.75,6872.47 7793.05,6965.48C7809.43,7129.17 7764.98,7205.65 7730.17,7253.19C7716.17,7272.3 7647.08,7283.06 7586.61,7252.46C7570.85,7244.49 7545.77,7190.6 7535.95,7168.38C7475.16,7174.41 7390.21,7166.69 7378.95,7079.68C7371.04,7018.48 7402.36,6975.57 7439.83,6957.35C7483.3,6936.21 7558.49,6952.8 7558.49,6952.8L7588.5,7106.55Z"/>
        </g>
    </g>
</svg>
