<?xml version="1.0" encoding="UTF-8" standalone="no"?>
<!DOCTYPE svg PUBLIC "-//W3C//DTD SVG 1.1//EN" "http://www.w3.org/Graphics/SVG/1.1/DTD/svg11.dtd">
<svg width="100%" height="100%" viewBox="0 0 290 1024" version="1.1" xmlns="http://www.w3.org/2000/svg" xmlns:xlink="http://www.w3.org/1999/xlink" xml:space="preserve" xmlns:serif="http://www.serif.com/" style="fill-rule:evenodd;clip-rule:evenodd;stroke-linejoin:round;stroke-miterlimit:2;">
    <g transform="matrix(1,0,0,1,-367,0)">
        <g id="atilde_small" transform="matrix(1,0,0,1,-7585.98,-5564.48)">
            <path d="M8190.1,5980.79L8242.15,6247.41C8242.15,6247.41 7978.65,6326.26 7955.42,6146.65C7945.08,6066.65 7986.02,6010.56 8035,5986.75C8091.82,5959.12 8190.1,5980.79 8190.1,5980.79ZM7996.44,5906.47C7996.44,5906.47 8009.32,5866.23 8063.57,5855.06C8116.15,5844.24 8119.71,5889.7 8152.37,5887.35C8169.31,5886.13 8191.82,5866.08 8191.82,5866.08L8219.85,5897.79C8207.63,5910.64 8195.43,5929.91 8148.6,5929.1C8097.02,5928.2 8104.81,5900.28 8069.64,5903.58C8041.26,5906.24 8032.19,5915.34 8018.77,5930.64L7996.44,5906.47Z"/>
        </g>
    </g>
</svg>
