<?xml version="1.0" encoding="UTF-8" standalone="no"?>
<!DOCTYPE svg PUBLIC "-//W3C//DTD SVG 1.1//EN" "http://www.w3.org/Graphics/SVG/1.1/DTD/svg11.dtd">
<svg width="100%" height="100%" viewBox="0 0 582 1024" version="1.1" xmlns="http://www.w3.org/2000/svg" xmlns:xlink="http://www.w3.org/1999/xlink" xml:space="preserve" xmlns:serif="http://www.serif.com/" style="fill-rule:evenodd;clip-rule:evenodd;stroke-linejoin:round;stroke-miterlimit:2;">
    <g transform="matrix(1,0,0,1,-221,0)">
        <g id="ccedilla_capital" transform="matrix(1,0,0,1,-5814.32,-4423.27)">
            <path d="M6380.04,5124.22C6353.63,5125.09 6329.96,5125.81 6312.38,5126.23C6220.31,5128.4 6118.17,5050.51 6081.42,4975.95C6044.68,4901.39 6035.15,4767.23 6035.51,4681.92C6042.98,4561.69 6190.28,4447.97 6329.32,4422.46L6417.62,4613.43C6417.62,4613.43 6248.11,4708.95 6315.21,4793.8C6382.3,4878.66 6488.86,4854.98 6488.86,4854.98L6617.13,5115.46C6617.13,5115.46 6566.19,5117.49 6503.96,5119.81C6509.96,5131.74 6517.44,5148.92 6524.94,5172.07C6559.6,5279.03 6387.85,5287.81 6387.85,5287.81L6385.39,5230.35C6385.39,5230.35 6458.45,5223.78 6451.88,5183.56C6445.32,5143.33 6399.35,5168.78 6399.35,5168.78L6380.04,5124.22Z"/>
        </g>
    </g>
</svg>
