<?xml version="1.0" encoding="UTF-8" standalone="no"?>
<!DOCTYPE svg PUBLIC "-//W3C//DTD SVG 1.1//EN" "http://www.w3.org/Graphics/SVG/1.1/DTD/svg11.dtd">
<svg width="100%" height="100%" viewBox="0 0 300 1024" version="1.1" xmlns="http://www.w3.org/2000/svg" xmlns:xlink="http://www.w3.org/1999/xlink" xml:space="preserve" xmlns:serif="http://www.serif.com/" style="fill-rule:evenodd;clip-rule:evenodd;stroke-linejoin:round;stroke-miterlimit:2;">
    <g transform="matrix(1,0,0,1,-362,0)">
        <g id="cent" transform="matrix(1,0,0,1,-259.684,-7954.04)">
            <path d="M786.485,8349.46C800.686,8349.51 810.694,8350.73 813.26,8351.05L811.768,8451.02C812.405,8451.4 802.331,8454.35 792.929,8460.44L795.486,8504.49C813.751,8509.11 839.371,8501.75 839.371,8501.75L920.899,8594.91C917.787,8614.1 866.432,8648.63 804.143,8653.6L807.097,8704.49L717.794,8697.05L719.527,8642.62C648.917,8618.59 626.659,8564.48 623.925,8536C612.256,8414.5 672.841,8371.11 728.636,8356.44L730.818,8287.89L782.911,8287.89L786.485,8349.46Z"/>
        </g>
    </g>
</svg>
