<?xml version="1.0" encoding="UTF-8" standalone="no"?>
<!DOCTYPE svg PUBLIC "-//W3C//DTD SVG 1.1//EN" "http://www.w3.org/Graphics/SVG/1.1/DTD/svg11.dtd">
<svg width="100%" height="100%" viewBox="0 0 650 1024" version="1.1" xmlns="http://www.w3.org/2000/svg" xmlns:xlink="http://www.w3.org/1999/xlink" xml:space="preserve" xmlns:serif="http://www.serif.com/" style="fill-rule:evenodd;clip-rule:evenodd;stroke-linejoin:round;stroke-miterlimit:2;">
    <g transform="matrix(1,0,0,1,-187,0)">
        <g id="copyright" transform="matrix(1,0,0,1,-9597.89,-6761.72)">
            <path d="M10341.8,7421.36C10258.8,7481.79 10067,7480.97 9932.33,7375.42C9839.02,7302.27 9768.27,7097.98 9788.37,6996.69C9808.46,6895.39 9879.38,6786.16 10052.9,6767.64C10212.6,6750.6 10373.8,6879.07 10396.1,6969.84C10438.8,7143.41 10474.3,7324.96 10341.8,7421.36ZM10309.8,6973.68C10277,6914.78 10185.1,6823.25 10064.4,6835.62C9991.43,6843.1 9872.96,6977.49 9884.01,7069.98C9906.82,7260.88 10076.8,7394.06 10294.9,7319.78C10362.1,7257.52 10386.7,7158.88 10309.8,6973.68ZM10171.7,6946.67C10158.9,6945.08 9962.14,6921.05 9982.36,7131.62C9985.7,7166.38 10018.1,7239.34 10132.1,7249.17C10207.3,7255.65 10275.7,7212.78 10279.3,7190.53L10197.8,7097.37C10197.8,7097.37 10146.7,7112.05 10137.4,7086.93C10127.1,7059.2 10171.5,7047.43 10170.2,7046.64L10171.7,6946.67Z"/>
        </g>
    </g>
</svg>
