<?xml version="1.0" encoding="UTF-8" standalone="no"?>
<!DOCTYPE svg PUBLIC "-//W3C//DTD SVG 1.1//EN" "http://www.w3.org/Graphics/SVG/1.1/DTD/svg11.dtd">
<svg width="100%" height="100%" viewBox="0 0 490 1024" version="1.1" xmlns="http://www.w3.org/2000/svg" xmlns:xlink="http://www.w3.org/1999/xlink" xml:space="preserve" xmlns:serif="http://www.serif.com/" style="fill-rule:evenodd;clip-rule:evenodd;stroke-linejoin:round;stroke-miterlimit:2;">
    <g transform="matrix(1,0,0,1,-267,0)">
        <g id="dollar" transform="matrix(1,0,0,1,-3764.89,-3298)">
            <path d="M4241.14,3464.18C4270.85,3462.03 4301.7,3460.86 4331.4,3460.3L4333.4,3412.94L4397.98,3412.94L4396.53,3459.97C4458.82,3460.43 4504.91,3462.89 4504.91,3462.89L4505.58,3607C4505.58,3607 4454.22,3604.37 4392.08,3603.6L4390.93,3640.56C4445.12,3644.11 4490.59,3660.43 4501.77,3691.62C4523.73,3752.83 4553.46,3935.7 4430.12,3972.34C4415.42,3976.71 4398.57,3980.32 4380.31,3983.3L4377.69,4067.98L4305.73,4067.98L4308.96,3991.51C4275.6,3994.1 4240.8,3995.39 4207.61,3995.9L4203.06,4067.98L4116.34,4067.98L4124.89,3995.72C4070.68,3994.74 4032.54,3992.44 4032.54,3992.44L4045.66,3797.4C4044.65,3793.74 4094.16,3794.31 4148.72,3794.25L4151.9,3767.42C4092.99,3762.19 4056.54,3748.84 4044.18,3689.26C4021.88,3581.7 4027.61,3530.98 4086.34,3495.98C4107.57,3483.33 4144.16,3474.93 4187.15,3469.44L4193.83,3412.94L4244.37,3412.94L4241.14,3464.18Z"/>
        </g>
    </g>
</svg>
