<?xml version="1.0" encoding="UTF-8" standalone="no"?>
<!DOCTYPE svg PUBLIC "-//W3C//DTD SVG 1.1//EN" "http://www.w3.org/Graphics/SVG/1.1/DTD/svg11.dtd">
<svg width="100%" height="100%" viewBox="0 0 270 1024" version="1.1" xmlns="http://www.w3.org/2000/svg" xmlns:xlink="http://www.w3.org/1999/xlink" xml:space="preserve" xmlns:serif="http://www.serif.com/" style="fill-rule:evenodd;clip-rule:evenodd;stroke-linejoin:round;stroke-miterlimit:2;">
    <g transform="matrix(1,0,0,1,-377,0)">
        <g id="eacute_small" transform="matrix(1,0,0,1,-9251.12,-5564.48)">
            <path d="M9782.52,6173.08L9892.11,6170.94L9892.4,6263.92C9844.46,6261.44 9639.22,6304.64 9629.16,6157.29C9621.14,6039.79 9692.41,5977.35 9764.85,5974.49C9819.13,5972.34 9896.33,5992.62 9897.68,6081.02C9898.88,6159.09 9815.29,6171.29 9782.52,6173.08L9769.57,6173.33C9769.57,6173.33 9774.53,6173.51 9782.52,6173.08ZM9861.82,5803.76L9785.98,5779.22L9743.61,5913.04L9797.14,5917.5L9861.82,5803.76Z"/>
        </g>
    </g>
</svg>
