<?xml version="1.0" encoding="UTF-8" standalone="no"?>
<!DOCTYPE svg PUBLIC "-//W3C//DTD SVG 1.1//EN" "http://www.w3.org/Graphics/SVG/1.1/DTD/svg11.dtd">
<svg width="100%" height="100%" viewBox="0 0 296 1024" version="1.1" xmlns="http://www.w3.org/2000/svg" xmlns:xlink="http://www.w3.org/1999/xlink" xml:space="preserve" xmlns:serif="http://www.serif.com/" style="fill-rule:evenodd;clip-rule:evenodd;stroke-linejoin:round;stroke-miterlimit:2;">
    <g transform="matrix(1,0,0,1,-364,0)">
        <g id="ecircumflex_small" transform="matrix(1,0,0,1,-9564.26,-5564.48)">
            <path d="M10083.5,6173.08L10193.1,6170.94L10193.4,6263.92C10145.5,6261.44 9940.22,6304.64 9930.15,6157.29C9922.13,6039.79 9993.4,5977.35 10065.8,5974.49C10120.1,5972.34 10197.3,5992.62 10198.7,6081.02C10199.9,6159.09 10116.3,6171.29 10083.5,6173.08L10070.6,6173.33C10070.6,6173.33 10075.5,6173.51 10083.5,6173.08ZM10082.9,5823.73L9929.05,5928.55L9969.2,5959.78L10085.2,5904.02L10198.9,5953.09L10223.5,5908.48L10082.9,5823.73Z"/>
        </g>
    </g>
</svg>
