<?xml version="1.0" encoding="UTF-8" standalone="no"?>
<!DOCTYPE svg PUBLIC "-//W3C//DTD SVG 1.1//EN" "http://www.w3.org/Graphics/SVG/1.1/DTD/svg11.dtd">
<svg width="100%" height="100%" viewBox="0 0 270 1024" version="1.1" xmlns="http://www.w3.org/2000/svg" xmlns:xlink="http://www.w3.org/1999/xlink" xml:space="preserve" xmlns:serif="http://www.serif.com/" style="fill-rule:evenodd;clip-rule:evenodd;stroke-linejoin:round;stroke-miterlimit:2;">
    <g transform="matrix(1,0,0,1,-377,0)">
        <g id="edieresis_small" transform="matrix(1,0,0,1,-9894.22,-5564.48)">
            <path d="M10425.6,6173.08L10535.2,6170.94L10535.5,6263.92C10487.6,6261.44 10282.3,6304.64 10272.3,6157.29C10264.2,6039.79 10335.5,5977.35 10408,5974.49C10462.2,5972.34 10539.4,5992.62 10540.8,6081.02C10542,6159.09 10458.4,6171.29 10425.6,6173.08L10412.7,6173.33C10412.7,6173.33 10417.6,6173.51 10425.6,6173.08ZM10356.4,5861.16L10361.3,5927.81L10410.1,5927.48L10410.1,5851.69L10356.4,5861.16ZM10495.7,5922.78L10496.2,5855.71L10432.7,5856.31L10452,5924.62L10495.7,5922.78Z"/>
        </g>
    </g>
</svg>
