<?xml version="1.0" encoding="UTF-8" standalone="no"?>
<!DOCTYPE svg PUBLIC "-//W3C//DTD SVG 1.1//EN" "http://www.w3.org/Graphics/SVG/1.1/DTD/svg11.dtd">
<svg width="100%" height="100%" viewBox="0 0 360 1024" version="1.1" xmlns="http://www.w3.org/2000/svg" xmlns:xlink="http://www.w3.org/1999/xlink" xml:space="preserve" xmlns:serif="http://www.serif.com/" style="fill-rule:evenodd;clip-rule:evenodd;stroke-linejoin:round;stroke-miterlimit:2;">
    <g transform="matrix(1,0,0,1,-332,0)">
        <g id="eth_small" transform="matrix(1,0,0,1,-7742.4,-7954.04)">
            <path d="M8241.06,8083.09C8275.84,8062.15 8313.48,8043.89 8354.02,8028.35L8417.11,8120.7C8377.14,8130.66 8339.87,8142.57 8305.45,8156.54C8400.03,8281.28 8449.9,8438.08 8429.53,8512.31C8413.05,8572.34 8392.82,8632.8 8303.48,8649.08C8214.13,8665.36 8145.09,8642.98 8118.69,8547.31C8092.3,8451.65 8188.86,8345.39 8274.55,8362.27C8264.01,8302.92 8237.38,8249.42 8208.68,8206.12C8183.34,8222.44 8160.38,8240.49 8139.91,8260.33L8074.75,8229.3C8099.91,8197.28 8128.04,8168.05 8159.19,8141.68C8132.78,8111.67 8112.51,8094.47 8112.51,8094.47L8173.45,8028.35C8196.6,8043.28 8219.3,8061.89 8241.06,8083.09Z"/>
        </g>
    </g>
</svg>
