<?xml version="1.0" encoding="UTF-8" standalone="no"?>
<!DOCTYPE svg PUBLIC "-//W3C//DTD SVG 1.1//EN" "http://www.w3.org/Graphics/SVG/1.1/DTD/svg11.dtd">
<svg width="100%" height="100%" viewBox="0 0 596 1024" version="1.1" xmlns="http://www.w3.org/2000/svg" xmlns:xlink="http://www.w3.org/1999/xlink" xml:space="preserve" xmlns:serif="http://www.serif.com/" style="fill-rule:evenodd;clip-rule:evenodd;stroke-linejoin:round;stroke-miterlimit:2;">
    <g transform="matrix(1,0,0,1,-214,0)">
        <g id="g_capital" transform="matrix(1,0,0,1,-3680.85,-1136)">
            <path d="M4457.78,1333.19L4457.78,1148.48C4457.78,1148.48 4055.22,1039.56 3958.92,1249.52C3862.62,1459.49 3864.2,1761.02 4050.48,1813.11C4236.77,1865.21 4442,1827.32 4470.41,1710.5C4498.83,1593.67 4487.78,1472.12 4487.78,1472.12L4233.61,1457.91L4234.47,1551.13L4158.41,1547.33C4158.41,1547.33 4140.24,1461.93 4178.36,1394.76C4231.39,1301.3 4338.41,1306.65 4457.78,1333.19Z"/>
        </g>
    </g>
</svg>
