<?xml version="1.0" encoding="UTF-8" standalone="no"?>
<!DOCTYPE svg PUBLIC "-//W3C//DTD SVG 1.1//EN" "http://www.w3.org/Graphics/SVG/1.1/DTD/svg11.dtd">
<svg width="100%" height="100%" viewBox="0 0 604 1024" version="1.1" xmlns="http://www.w3.org/2000/svg" xmlns:xlink="http://www.w3.org/1999/xlink" xml:space="preserve" xmlns:serif="http://www.serif.com/" style="fill-rule:evenodd;clip-rule:evenodd;stroke-linejoin:round;stroke-miterlimit:2;">
    <g transform="matrix(1,0,0,1,-210,0)">
        <g id="germandbls" transform="matrix(1,0,0,1,-8247.74,-7954.04)">
            <path d="M8681.54,8651.28L8530.45,8658.58L8458.19,7970.11C8458.19,7970.11 8624.38,7959.51 8695.4,7954.61C8846.64,7944.18 8703.21,8088.49 8731.65,8147.35C8775.19,8237.49 9059.07,8154.66 9061.28,8375.87L9061.28,8632.93L8759.74,8647.5L8759.74,8557.84C8759.74,8557.84 8858.41,8542.27 8938.33,8530.86C9018.26,8519.44 8969.23,8434.93 8945.35,8362.27C8921.48,8289.61 8781.68,8332.08 8781.68,8332.08L8662.23,8362.27L8681.54,8651.28Z"/>
        </g>
    </g>
</svg>
