<?xml version="1.0" encoding="UTF-8" standalone="no"?>
<!DOCTYPE svg PUBLIC "-//W3C//DTD SVG 1.1//EN" "http://www.w3.org/Graphics/SVG/1.1/DTD/svg11.dtd">
<svg width="100%" height="100%" viewBox="0 0 628 1024" version="1.1" xmlns="http://www.w3.org/2000/svg" xmlns:xlink="http://www.w3.org/1999/xlink" xml:space="preserve" xmlns:serif="http://www.serif.com/" style="fill-rule:evenodd;clip-rule:evenodd;stroke-linejoin:round;stroke-miterlimit:2;">
    <g transform="matrix(1,0,0,1,-198,0)">
        <g id="hashtag" transform="matrix(1,0,0,1,-3109.55,-3296)">
            <path d="M3789.22,3571.18L3935.23,3568.39L3864.7,3699.61L3789.22,3700.27L3789.22,3769L3882.02,3769.59L3889.45,3911.21L3789.22,3903.07L3789.22,3996.8L3606.08,4001.56L3614.62,3888.89L3508.16,3880.24L3487.29,4007.51L3357.37,3994.42L3375.45,3869.47L3332.62,3865.99L3322.72,3766.02L3390.37,3766.45L3399.45,3703.67L3335.09,3704.23L3307.87,3580.4L3417.6,3578.3L3431.61,3481.51L3573.91,3479.13L3558.1,3575.61L3638.48,3574.07L3645.68,3479.13L3789.22,3479.13L3789.22,3571.18ZM3537.3,3702.46L3526.67,3767.33L3623.79,3767.95L3628.81,3701.66L3537.3,3702.46Z"/>
        </g>
    </g>
</svg>
