<?xml version="1.0" encoding="UTF-8" standalone="no"?>
<!DOCTYPE svg PUBLIC "-//W3C//DTD SVG 1.1//EN" "http://www.w3.org/Graphics/SVG/1.1/DTD/svg11.dtd">
<svg width="100%" height="100%" viewBox="0 0 224 1024" version="1.1" xmlns="http://www.w3.org/2000/svg" xmlns:xlink="http://www.w3.org/1999/xlink" xml:space="preserve" xmlns:serif="http://www.serif.com/" style="fill-rule:evenodd;clip-rule:evenodd;stroke-linejoin:round;stroke-miterlimit:2;">
    <g transform="matrix(1,0,0,1,-400,0)">
        <g id="ntilde__small" transform="matrix(1,0,0,1,-845.795,-6761.72)">
            <path d="M1295.2,7464L1277.66,7263.24C1277.66,7263.24 1273.76,7191.12 1361.48,7193.07C1449.19,7195.02 1453.09,7269.08 1453.09,7269.08L1466.73,7462.05L1295.2,7464ZM1246.09,7144.66C1246.09,7144.66 1258.97,7104.43 1313.22,7093.26C1365.8,7082.43 1369.37,7127.9 1402.02,7125.54C1418.96,7124.32 1441.48,7104.27 1441.48,7104.27L1469.5,7135.99C1457.28,7148.84 1445.08,7168.1 1398.25,7167.29C1346.67,7166.39 1354.46,7138.48 1319.3,7141.78C1290.91,7144.44 1281.85,7153.53 1268.42,7168.83L1246.09,7144.66Z"/>
        </g>
    </g>
</svg>
