<?xml version="1.0" encoding="UTF-8" standalone="no"?>
<!DOCTYPE svg PUBLIC "-//W3C//DTD SVG 1.1//EN" "http://www.w3.org/Graphics/SVG/1.1/DTD/svg11.dtd">
<svg width="100%" height="100%" viewBox="0 0 456 1024" version="1.1" xmlns="http://www.w3.org/2000/svg" xmlns:xlink="http://www.w3.org/1999/xlink" xml:space="preserve" xmlns:serif="http://www.serif.com/" style="fill-rule:evenodd;clip-rule:evenodd;stroke-linejoin:round;stroke-miterlimit:2;">
    <g transform="matrix(1,0,0,1,-284,0)">
        <g id="Ntilde_capital" transform="matrix(1,0,0,1,-7202.87,-7954.04)">
            <path d="M7592.68,8008.74C7605.42,7992.46 7628.53,7972.51 7668.37,7964.31C7738.52,7949.87 7743.28,8010.53 7786.85,8007.39C7809.46,8005.76 7839.5,7979 7839.5,7979L7876.89,8021.32C7860.58,8038.47 7844.3,8064.17 7781.82,8063.09C7713,8061.89 7723.39,8024.65 7676.48,8029.05C7664.57,8030.16 7655.97,8032.82 7649.21,8036.57L7881.27,8150.83L7942.79,8657.48L7486.95,8647.23L7497.93,7962.08L7592.68,8008.74Z"/>
        </g>
    </g>
</svg>
