<?xml version="1.0" encoding="UTF-8" standalone="no"?>
<!DOCTYPE svg PUBLIC "-//W3C//DTD SVG 1.1//EN" "http://www.w3.org/Graphics/SVG/1.1/DTD/svg11.dtd">
<svg width="100%" height="100%" viewBox="0 0 314 1024" version="1.1" xmlns="http://www.w3.org/2000/svg" xmlns:xlink="http://www.w3.org/1999/xlink" xml:space="preserve" xmlns:serif="http://www.serif.com/" style="fill-rule:evenodd;clip-rule:evenodd;stroke-linejoin:round;stroke-miterlimit:2;">
    <g transform="matrix(1,0,0,1,-355,0)">
        <g id="odireresis_small" transform="matrix(1,0,0,1,-2249.52,-6761.72)">
            <path d="M2738.79,7170.04C2826.1,7168.01 2893.11,7198.54 2913.42,7281.99C2933.72,7365.44 2884.99,7440.74 2795.64,7457.03C2706.3,7473.31 2637.26,7450.92 2610.86,7355.26C2584.46,7259.6 2651.47,7172.08 2738.79,7170.04ZM2683.77,7067.53L2688.73,7134.17L2737.45,7133.85L2737.45,7058.05L2683.77,7067.53ZM2823.05,7129.15L2823.64,7062.07L2760.07,7062.67L2779.35,7130.98L2823.05,7129.15Z"/>
        </g>
    </g>
</svg>
