<?xml version="1.0" encoding="UTF-8" standalone="no"?>
<!DOCTYPE svg PUBLIC "-//W3C//DTD SVG 1.1//EN" "http://www.w3.org/Graphics/SVG/1.1/DTD/svg11.dtd">
<svg width="100%" height="100%" viewBox="0 0 746 1024" version="1.1" xmlns="http://www.w3.org/2000/svg" xmlns:xlink="http://www.w3.org/1999/xlink" xml:space="preserve" xmlns:serif="http://www.serif.com/" style="fill-rule:evenodd;clip-rule:evenodd;stroke-linejoin:round;stroke-miterlimit:2;">
    <g transform="matrix(1,0,0,1,-139,0)">
        <g id="oe_capital" transform="matrix(1,0,0,1,-2314.62,-9015.25)">
            <path d="M2705.42,9015.42L2705.42,9015.42L3176.05,9015.92L3154.81,9211.72L2995.53,9210.15L3002.39,9345.24L3105.05,9335.77L3105.05,9422.59L3024.91,9433.65L3029.57,9570.57L3171.27,9567.42L3199.55,9722.67L2793.79,9706.91C2772.63,9712.57 2722.74,9719.69 2696.22,9715.58C2450.54,9677.5 2449.97,9530.25 2454.79,9355.45C2459.6,9180.65 2481.91,9126.32 2583.5,9059.32C2604.72,9045.32 2698.95,9011.37 2705.42,9015.42Z"/>
        </g>
    </g>
</svg>
