<?xml version="1.0" encoding="UTF-8" standalone="no"?>
<!DOCTYPE svg PUBLIC "-//W3C//DTD SVG 1.1//EN" "http://www.w3.org/Graphics/SVG/1.1/DTD/svg11.dtd">
<svg width="100%" height="100%" viewBox="0 0 500 1024" version="1.1" xmlns="http://www.w3.org/2000/svg" xmlns:xlink="http://www.w3.org/1999/xlink" xml:space="preserve" xmlns:serif="http://www.serif.com/" style="fill-rule:evenodd;clip-rule:evenodd;stroke-linejoin:round;stroke-miterlimit:2;">
    <g transform="matrix(1,0,0,1,-262,0)">
        <g id="oe_small" transform="matrix(1,0,0,1,-1588.18,-9015.25)">
            <path d="M2121.99,9467.39C2147.63,9438.74 2182.33,9423.47 2217.31,9422.09C2271.59,9419.94 2348.78,9440.22 2350.14,9528.62C2351.34,9606.69 2267.75,9618.89 2234.97,9620.68L2222.02,9620.93C2222.02,9620.93 2226.99,9621.11 2234.97,9620.68L2344.57,9618.54L2344.85,9711.52C2307.69,9709.6 2175.94,9735.14 2113.94,9678.01C2094.48,9693.96 2069.78,9705.44 2040.81,9710.72C1951.47,9727.01 1882.43,9704.62 1856.03,9608.96C1829.63,9513.29 1896.64,9425.77 1983.96,9423.74C2041.16,9422.41 2089.64,9435.05 2121.99,9467.39Z"/>
        </g>
    </g>
</svg>
