<?xml version="1.0" encoding="UTF-8" standalone="no"?>
<!DOCTYPE svg PUBLIC "-//W3C//DTD SVG 1.1//EN" "http://www.w3.org/Graphics/SVG/1.1/DTD/svg11.dtd">
<svg width="100%" height="100%" viewBox="0 0 412 1024" version="1.1" xmlns="http://www.w3.org/2000/svg" xmlns:xlink="http://www.w3.org/1999/xlink" xml:space="preserve" xmlns:serif="http://www.serif.com/" style="fill-rule:evenodd;clip-rule:evenodd;stroke-linejoin:round;stroke-miterlimit:2;">
    <g transform="matrix(1,0,0,1,-306,0)">
        <g id="onehalf" transform="matrix(1,0,0,1,-5508.8,-7954.04)">
            <path d="M5964.99,8054.47L5988.95,7968.61L6047.87,7975.67L6027.02,8083.58L6089.56,8083.58C6089.56,8083.58 6150.74,8080.48 6159.89,8096.22C6184.67,8138.87 6190.03,8146.52 6181.7,8166.27C6172.23,8188.71 6139.59,8201.14 6139.59,8201.14L6212.27,8204.16L6226.58,8265.36L6020.88,8265.36L6018.73,8161.73C6028.63,8161.22 6048.08,8160.13 6054.21,8159.78C6065.21,8159.15 6084.2,8158.03 6083.58,8140.82C6083.39,8135.45 6047.47,8134.42 6038.05,8134.53C6032.47,8134.6 6025.61,8134.81 6017.11,8134.82L5983.3,8309.78L5900.45,8285.73L5942.2,8136.13L5886.13,8133.44L5891.78,8028.82L5854.52,8072.85L5815.01,8016.4L5873.46,7953.18L5960.64,7952.9L5964.99,8054.47Z"/>
        </g>
    </g>
</svg>
