<?xml version="1.0" encoding="UTF-8" standalone="no"?>
<!DOCTYPE svg PUBLIC "-//W3C//DTD SVG 1.1//EN" "http://www.w3.org/Graphics/SVG/1.1/DTD/svg11.dtd">
<svg width="100%" height="100%" viewBox="0 0 522 1024" version="1.1" xmlns="http://www.w3.org/2000/svg" xmlns:xlink="http://www.w3.org/1999/xlink" xml:space="preserve" xmlns:serif="http://www.serif.com/" style="fill-rule:evenodd;clip-rule:evenodd;stroke-linejoin:round;stroke-miterlimit:2;">
    <g transform="matrix(1,0,0,1,-251,0)">
        <g id="Oslash_capital" transform="matrix(1,0,0,1,-8295.85,-1137.33)">
            <path d="M8778.38,1148.55C8826.4,1144.01 8869.77,1151.32 8907.47,1167.88L8961.21,1079.07L9033.52,1132.87L8988.23,1216.24C9043.86,1283.52 9072.85,1396.5 9067.42,1476.56C9054.79,1662.84 9026.37,1836.5 8824.3,1836.5C8768.4,1836.5 8712.98,1817.91 8676.86,1797.41L8624.53,1863.96L8565.64,1824.84L8611.06,1732.19C8555.55,1649.14 8545.32,1530.91 8548.03,1432.35C8552.77,1260.28 8580.91,1167.21 8778.38,1148.55Z"/>
        </g>
    </g>
</svg>
