<?xml version="1.0" encoding="UTF-8" standalone="no"?>
<!DOCTYPE svg PUBLIC "-//W3C//DTD SVG 1.1//EN" "http://www.w3.org/Graphics/SVG/1.1/DTD/svg11.dtd">
<svg width="100%" height="100%" viewBox="0 0 380 1024" version="1.1" xmlns="http://www.w3.org/2000/svg" xmlns:xlink="http://www.w3.org/1999/xlink" xml:space="preserve" xmlns:serif="http://www.serif.com/" style="fill-rule:evenodd;clip-rule:evenodd;stroke-linejoin:round;stroke-miterlimit:2;">
    <g transform="matrix(1,0,0,1,-322,-1)">
        <g id="oslash_small" transform="matrix(1.00651,0,0,1.00651,-3099.88,-6804.73)">
            <path d="M3621.1,7171.83L3667.74,7115.7L3776.39,7179.08L3718,7239.14C3724.19,7250.48 3729.11,7263.32 3732.62,7277.75C3752.75,7360.45 3704.45,7435.08 3615.9,7451.22C3577.94,7458.14 3543.67,7458.01 3514.84,7448.13L3461.01,7503.51L3400.65,7437.11L3445.05,7383.69C3440.28,7373.75 3436.17,7362.67 3432.78,7350.36C3406.61,7255.56 3473.02,7168.82 3559.56,7166.81C3581.51,7166.29 3602.17,7167.86 3621.1,7171.83Z"/>
        </g>
    </g>
</svg>
