<?xml version="1.0" encoding="UTF-8" standalone="no"?>
<!DOCTYPE svg PUBLIC "-//W3C//DTD SVG 1.1//EN" "http://www.w3.org/Graphics/SVG/1.1/DTD/svg11.dtd">
<svg width="100%" height="100%" viewBox="0 0 522 1024" version="1.1" xmlns="http://www.w3.org/2000/svg" xmlns:xlink="http://www.w3.org/1999/xlink" xml:space="preserve" xmlns:serif="http://www.serif.com/" style="fill-rule:evenodd;clip-rule:evenodd;stroke-linejoin:round;stroke-miterlimit:2;">
    <g transform="matrix(1,0,0,1,-251,0)">
        <g id="Otilde_capital" transform="matrix(1,0,0,1,-1831.55,-5564.48)">
            <path d="M2194.57,5602.2L2175.87,5580.77C2175.87,5580.77 2195.44,5527.91 2268.43,5516.27C2339.16,5504.98 2341.19,5565.79 2384.86,5564.61C2407.51,5563.99 2438.72,5538.61 2438.72,5538.61L2474.18,5582.57C2468.76,5587.77 2463.31,5593.84 2456.4,5599.57C2555.97,5650.99 2611.93,5769.61 2602.97,5901.86C2590.34,6088.14 2561.92,6261.8 2359.85,6261.8C2113.58,6261.8 2078.85,6029.73 2083.58,5857.65C2087.12,5728.94 2103.76,5644.43 2194.57,5602.2Z"/>
        </g>
    </g>
</svg>
