<?xml version="1.0" encoding="UTF-8" standalone="no"?>
<!DOCTYPE svg PUBLIC "-//W3C//DTD SVG 1.1//EN" "http://www.w3.org/Graphics/SVG/1.1/DTD/svg11.dtd">
<svg width="100%" height="100%" viewBox="0 0 314 1024" version="1.1" xmlns="http://www.w3.org/2000/svg" xmlns:xlink="http://www.w3.org/1999/xlink" xml:space="preserve" xmlns:serif="http://www.serif.com/" style="fill-rule:evenodd;clip-rule:evenodd;stroke-linejoin:round;stroke-miterlimit:2;">
    <g transform="matrix(1,0,0,1,-355,0)">
        <g id="otilde_small" transform="matrix(1,0,0,1,-2620.63,-6761.72)">
            <path d="M3109.9,7170.04C3197.21,7168.01 3264.22,7198.54 3284.53,7281.99C3304.84,7365.44 3256.1,7440.74 3166.76,7457.03C3077.41,7473.31 3008.37,7450.92 2981.97,7355.26C2955.57,7259.6 3022.58,7172.08 3109.9,7170.04ZM3018.12,7111.51C3018.12,7111.51 3031,7071.27 3085.26,7060.1C3137.83,7049.28 3141.4,7094.74 3174.05,7092.38C3190.99,7091.16 3213.51,7071.11 3213.51,7071.11L3241.54,7102.83C3229.31,7115.68 3217.11,7134.94 3170.28,7134.13C3118.7,7133.24 3126.49,7105.32 3091.33,7108.62C3062.94,7111.28 3053.88,7120.38 3040.45,7135.67L3018.12,7111.51Z"/>
        </g>
    </g>
</svg>
