<?xml version="1.0" encoding="UTF-8" standalone="no"?>
<!DOCTYPE svg PUBLIC "-//W3C//DTD SVG 1.1//EN" "http://www.w3.org/Graphics/SVG/1.1/DTD/svg11.dtd">
<svg width="100%" height="100%" viewBox="0 0 354 1024" version="1.1" xmlns="http://www.w3.org/2000/svg" xmlns:xlink="http://www.w3.org/1999/xlink" xml:space="preserve" xmlns:serif="http://www.serif.com/" style="fill-rule:evenodd;clip-rule:evenodd;stroke-linejoin:round;stroke-miterlimit:2;">
    <g transform="matrix(1,0,0,1,-335,0)">
        <g id="question" transform="matrix(1,0,0,1,-9632.32,-1157.52)">
            <path d="M10160.1,1709.56L10241.7,1786.78L10184.2,1864.3L10091.4,1802.34L10160.1,1709.56ZM9967.53,1334.43C9967.53,1334.43 10022.9,1163.03 10144.7,1141.99C10296.1,1115.87 10354.8,1236.43 10302.3,1331.48C10253.7,1419.44 10245.9,1438.12 10213.4,1499.37C10193.9,1536.13 10205.1,1583.76 10219.4,1665.59L10097.1,1684.63L10065.2,1524.01C10114.9,1417.46 10151.2,1370.32 10177.1,1322.59C10200.7,1279.03 10188.6,1236.65 10157.9,1285.41C10121,1343.82 10089.1,1389.1 10089.1,1389.1L9967.53,1334.43Z"/>
        </g>
    </g>
</svg>
