<?xml version="1.0" encoding="UTF-8" standalone="no"?>
<!DOCTYPE svg PUBLIC "-//W3C//DTD SVG 1.1//EN" "http://www.w3.org/Graphics/SVG/1.1/DTD/svg11.dtd">
<svg width="100%" height="100%" viewBox="0 0 650 1024" version="1.1" xmlns="http://www.w3.org/2000/svg" xmlns:xlink="http://www.w3.org/1999/xlink" xml:space="preserve" xmlns:serif="http://www.serif.com/" style="fill-rule:evenodd;clip-rule:evenodd;stroke-linejoin:round;stroke-miterlimit:2;">
    <g transform="matrix(1,0,0,1,-187,0)">
        <g id="register" transform="matrix(1,0,0,1,-8922.26,-6761.72)">
            <path d="M9666.18,7421.36C9583.16,7481.79 9391.34,7480.97 9256.7,7375.42C9163.39,7302.27 9092.64,7097.98 9112.74,6996.69C9132.83,6895.39 9203.75,6786.16 9377.27,6767.64C9537,6750.6 9698.16,6879.07 9720.49,6969.84C9763.2,7143.41 9798.63,7324.96 9666.18,7421.36ZM9634.21,6973.68C9601.37,6914.78 9509.44,6823.25 9388.77,6835.62C9315.79,6843.1 9197.33,6977.49 9208.38,7069.98C9231.18,7260.88 9401.18,7394.06 9619.3,7319.78C9686.48,7257.52 9711.05,7158.88 9634.21,6973.68ZM9291.04,7244.24L9306.65,6951.69C9306.65,6951.69 9475.6,6914.56 9523.13,6946.82C9603.36,7001.27 9557.38,7109.51 9489,7121.37L9644.05,7221.81L9573.84,7257.89L9392.46,7144.77L9394.41,7242.28L9291.04,7244.24Z"/>
        </g>
    </g>
</svg>
