<?xml version="1.0" encoding="UTF-8" standalone="no"?>
<!DOCTYPE svg PUBLIC "-//W3C//DTD SVG 1.1//EN" "http://www.w3.org/Graphics/SVG/1.1/DTD/svg11.dtd">
<svg width="100%" height="100%" viewBox="0 0 586 1024" version="1.1" xmlns="http://www.w3.org/2000/svg" xmlns:xlink="http://www.w3.org/1999/xlink" xml:space="preserve" xmlns:serif="http://www.serif.com/" style="fill-rule:evenodd;clip-rule:evenodd;stroke-linejoin:round;stroke-miterlimit:2;">
    <g transform="matrix(1,0,0,1,-219,0)">
        <g id="s_capital" transform="matrix(1,0,0,1,-2305.72,-2212.71)">
            <path d="M3094.92,2220.31L3095.7,2406.08C3095.7,2406.08 2919.24,2400.18 2819.93,2401.67C2783.72,2402.21 2760.04,2416.66 2760.34,2427.2C2760.62,2436.63 2769.65,2441.96 2823.93,2437.59C2910.9,2430.59 3067.23,2428.18 3084.25,2480.86C3109.75,2559.76 3151.29,2829.78 3008.07,2877.01C2864.84,2924.24 2546.4,2902.91 2546.4,2902.91L2561.63,2651.51C2560.1,2645.36 2681.17,2650.84 2762.06,2649.38C2800.88,2648.67 2831.05,2649.98 2832.85,2640.84C2835.84,2625.57 2790.8,2635.58 2747.24,2632.98C2656.9,2627.59 2550.99,2620.99 2534.21,2531.14C2508.3,2392.48 2540.67,2308.09 2608.87,2262.97C2707.9,2197.45 3094.92,2220.31 3094.92,2220.31Z"/>
        </g>
    </g>
</svg>
