<?xml version="1.0" encoding="UTF-8" standalone="no"?>
<!DOCTYPE svg PUBLIC "-//W3C//DTD SVG 1.1//EN" "http://www.w3.org/Graphics/SVG/1.1/DTD/svg11.dtd">
<svg width="100%" height="100%" viewBox="0 0 304 1024" version="1.1" xmlns="http://www.w3.org/2000/svg" xmlns:xlink="http://www.w3.org/1999/xlink" xml:space="preserve" xmlns:serif="http://www.serif.com/" style="fill-rule:evenodd;clip-rule:evenodd;stroke-linejoin:round;stroke-miterlimit:2;">
    <g transform="matrix(1,0,0,1,-360,0)">
        <g id="section" transform="matrix(1,0,0,1,-2546.27,-7954.04)">
            <path d="M2972.42,8214.71C2941.34,8183.87 2915.3,8149.47 2909.19,8111.39C2879.59,7926.97 3152.41,7957.22 3152.41,7957.22L3167.2,8062.83C3167.2,8062.83 3022.97,8012.77 3014.85,8118.78C3007.15,8219.29 3231.57,8196.89 3190.4,8421.86C3187.42,8438.15 3162.99,8436.17 3151.9,8441.89C3183.36,8471.51 3199.46,8492.66 3206.6,8530.09C3241.62,8713.56 2958.5,8648.1 2958.5,8648.1L2954.46,8554.22C2954.46,8554.22 3105.36,8622.2 3073.95,8520.63C3049.77,8442.46 2855.4,8420 2926.74,8240.15C2934.36,8220.97 2959.81,8221.66 2972.42,8214.71ZM3047.57,8293.9C3097.76,8336.35 3119.17,8365.71 3065.58,8389.47C3013.57,8348.02 2991.23,8319.36 3047.57,8293.9Z"/>
        </g>
    </g>
</svg>
