<?xml version="1.0" encoding="UTF-8" standalone="no"?>
<!DOCTYPE svg PUBLIC "-//W3C//DTD SVG 1.1//EN" "http://www.w3.org/Graphics/SVG/1.1/DTD/svg11.dtd">
<svg width="100%" height="100%" viewBox="0 0 182 1024" version="1.1" xmlns="http://www.w3.org/2000/svg" xmlns:xlink="http://www.w3.org/1999/xlink" xml:space="preserve" xmlns:serif="http://www.serif.com/" style="fill-rule:evenodd;clip-rule:evenodd;stroke-linejoin:round;stroke-miterlimit:2;">
    <g transform="matrix(1,0,0,1,-421,0)">
        <g id="semicolon" transform="matrix(1,0,0,1,-4885.41,-2212.99)">
            <path d="M5307.07,2812.07L5315.97,2901.35L5394.04,2897.45C5394.04,2897.45 5406.52,2999.85 5392.95,3028C5380.06,3054.73 5317.9,3057.54 5317.9,3057.54L5309.72,3114.85C5309.72,3114.85 5377.69,3120.77 5417.94,3113.94C5498.69,3100.22 5487.17,3013.68 5487.17,3013.68L5476.75,2796.41L5307.07,2812.07ZM5307.71,2623.3L5313.42,2716.62L5446.74,2733.76L5481.03,2623.3L5307.71,2623.3Z"/>
        </g>
    </g>
</svg>
