<?xml version="1.0" encoding="UTF-8" standalone="no"?>
<!DOCTYPE svg PUBLIC "-//W3C//DTD SVG 1.1//EN" "http://www.w3.org/Graphics/SVG/1.1/DTD/svg11.dtd">
<svg width="100%" height="100%" viewBox="0 0 338 1024" version="1.1" xmlns="http://www.w3.org/2000/svg" xmlns:xlink="http://www.w3.org/1999/xlink" xml:space="preserve" xmlns:serif="http://www.serif.com/" style="fill-rule:evenodd;clip-rule:evenodd;stroke-linejoin:round;stroke-miterlimit:2;">
    <g transform="matrix(1,0,0,1,-343,0)">
        <g id="sterling" transform="matrix(1,0,0,1,-716.246,-7954.04)">
            <path d="M1198.06,8361.81C1199.33,8268.58 1199.39,8173.63 1211.97,8137.4C1239.87,8056.98 1374.76,8153.86 1374.76,8153.86L1323.6,8206.19C1323.6,8206.19 1292.94,8160.4 1272.43,8187.59C1257.75,8207.05 1267.21,8248.09 1269.66,8360.73L1338.71,8359.68L1353.83,8412.01L1269.87,8413.53C1266.31,8532.89 1228.25,8588.75 1228.25,8588.75L1381.74,8571.31L1396.85,8654.21L1063.13,8654.21L1059.64,8588.75C1059.64,8588.75 1083.36,8582.94 1138.01,8585.26C1163.32,8586.34 1194.79,8507.65 1197.1,8414.85L1161.97,8415.49L1167.78,8362.27L1198.06,8361.81Z"/>
        </g>
    </g>
</svg>
