<?xml version="1.0" encoding="UTF-8" standalone="no"?>
<!DOCTYPE svg PUBLIC "-//W3C//DTD SVG 1.1//EN" "http://www.w3.org/Graphics/SVG/1.1/DTD/svg11.dtd">
<svg width="100%" height="100%" viewBox="0 0 320 1024" version="1.1" xmlns="http://www.w3.org/2000/svg" xmlns:xlink="http://www.w3.org/1999/xlink" xml:space="preserve" xmlns:serif="http://www.serif.com/" style="fill-rule:evenodd;clip-rule:evenodd;stroke-linejoin:round;stroke-miterlimit:2;">
    <g transform="matrix(1,0,0,1,-352,0)">
        <g id="threequarters" transform="matrix(1,0,0,1,-5962.19,-7954.04)">
            <path d="M6434.98,8133.94C6427.58,8136.04 6420.37,8137.3 6414.93,8138.19C6397.35,8141.06 6330.71,8136.91 6330.71,8136.91L6327.65,8081.89C6327.65,8081.89 6345.67,8078.01 6356.89,8075.79C6362.31,8074.72 6375.79,8071.05 6374.94,8061.56C6373.63,8046.8 6356.64,8047.83 6350.48,8048.8C6340.84,8050.32 6326.52,8051.67 6326.52,8051.67L6323.74,8031.42C6323.74,8031.42 6333.89,8027.19 6341.67,8024.22C6346,8022.57 6359.49,8019.18 6358.48,8007.2C6357.5,7995.65 6340.45,7997.04 6335.91,7998.28C6329.92,7999.91 6322.34,8002.16 6322.34,8002.16L6314.94,7953.84C6314.94,7953.84 6398.24,7952.41 6408.37,7956.16C6427.86,7963.36 6451.25,7980.72 6454.18,8006.26C6457.11,8031.8 6423.07,8039.97 6423.07,8039.97C6423.07,8039.97 6452.38,8036.87 6459.08,8047.5L6459.09,8047.52L6481.11,7968.61L6540.04,7975.67L6520,8079.35L6579.35,8075.31L6574.53,8149.22L6623.81,8158.99L6633.45,8255.8L6555.78,8261.62L6547.21,8200.1L6501.15,8192.6L6503.82,8163.08L6475.47,8309.78L6392.61,8285.73L6434.98,8133.94Z"/>
        </g>
    </g>
</svg>
