<?xml version="1.0" encoding="UTF-8" standalone="no"?>
<!DOCTYPE svg PUBLIC "-//W3C//DTD SVG 1.1//EN" "http://www.w3.org/Graphics/SVG/1.1/DTD/svg11.dtd">
<svg width="100%" height="100%" viewBox="0 0 556 1024" version="1.1" xmlns="http://www.w3.org/2000/svg" xmlns:xlink="http://www.w3.org/1999/xlink" xml:space="preserve" xmlns:serif="http://www.serif.com/" style="fill-rule:evenodd;clip-rule:evenodd;stroke-linejoin:round;stroke-miterlimit:2;">
    <g transform="matrix(1,0,0,1,-234,0)">
        <g id="Ucircumflex_capital" transform="matrix(1,0,0,1,-5050.15,-5564.48)">
            <path d="M5376.52,5565.18L5572.76,5431.51L5760.24,5544.6L5750.8,5561.76C5803.47,5561.28 5838.9,5560.95 5838.9,5560.95C5838.9,5560.95 5847.55,5834.57 5805.09,6036.5C5780.17,6155.01 5665.81,6277.03 5520.27,6272.59C5353.88,6267.52 5288.49,6129.3 5285.6,5994.93C5281.44,5802.05 5292.31,5565.82 5300.13,5565.82C5303.18,5565.82 5332.7,5565.57 5376.52,5565.18ZM5523.3,5563.85L5575.74,5538.64L5631.87,5562.86L5574.55,5563.38C5557.98,5563.54 5541.41,5563.69 5524.84,5563.84L5523.3,5563.85Z"/>
        </g>
    </g>
</svg>
