<?xml version="1.0" encoding="UTF-8" standalone="no"?>
<!DOCTYPE svg PUBLIC "-//W3C//DTD SVG 1.1//EN" "http://www.w3.org/Graphics/SVG/1.1/DTD/svg11.dtd">
<svg width="100%" height="100%" viewBox="0 0 556 1024" version="1.1" xmlns="http://www.w3.org/2000/svg" xmlns:xlink="http://www.w3.org/1999/xlink" xml:space="preserve" xmlns:serif="http://www.serif.com/" style="fill-rule:evenodd;clip-rule:evenodd;stroke-linejoin:round;stroke-miterlimit:2;">
    <g transform="matrix(1,0,0,1,-234,0)">
        <g id="Udieresis_capital" transform="matrix(1,0,0,1,-5661.77,-5564.48)">
            <path d="M6149.2,5563.72L6186.16,5563.38L6199.68,5563.26L6179.36,5491.32L6264.19,5490.53L6269.81,5562.62C6369.25,5561.7 6450.51,5560.95 6450.51,5560.95C6450.51,5560.95 6459.16,5834.57 6416.7,6036.5C6391.78,6155.01 6277.43,6277.03 6131.89,6272.59C5965.5,6267.52 5900.11,6129.3 5897.21,5994.93C5893.06,5802.05 5903.92,5565.82 5911.74,5565.82C5916.62,5565.82 5989.1,5565.18 6079.41,5564.36L6077.57,5497.81L6149.2,5485.16L6149.2,5563.72Z"/>
        </g>
    </g>
</svg>
