<?xml version="1.0" encoding="UTF-8" standalone="no"?>
<!DOCTYPE svg PUBLIC "-//W3C//DTD SVG 1.1//EN" "http://www.w3.org/Graphics/SVG/1.1/DTD/svg11.dtd">
<svg width="100%" height="100%" viewBox="0 0 156 1024" version="1.1" xmlns="http://www.w3.org/2000/svg" xmlns:xlink="http://www.w3.org/1999/xlink" xml:space="preserve" xmlns:serif="http://www.serif.com/" style="fill-rule:evenodd;clip-rule:evenodd;stroke-linejoin:round;stroke-miterlimit:2;">
    <g transform="matrix(1,0,0,1,-434,0)">
        <g id="uni00b3" transform="matrix(0.343474,0,0,0.343474,-2732.67,-815.856)">
            <path d="M9221.4,2374.71L9242.94,2515.41C9242.94,2515.41 9265.02,2508.83 9282.45,2504.08C9295.69,2500.48 9345.31,2496.44 9348.16,2530.07C9351.12,2564.94 9311.84,2574.8 9299.24,2579.61C9276.58,2588.26 9247.03,2600.57 9247.03,2600.57L9255.13,2659.54C9255.13,2659.54 9296.81,2655.6 9324.87,2651.18C9342.82,2648.35 9392.26,2645.36 9396.09,2688.34C9398.56,2715.96 9359.31,2726.64 9343.53,2729.76C9310.87,2736.22 9258.4,2747.51 9258.4,2747.51L9267.32,2907.72C9267.32,2907.72 9461.32,2919.78 9512.52,2911.43C9563.71,2903.08 9669.09,2883.4 9671.53,2805.39C9673.97,2727.38 9660.56,2678.35 9641.06,2647.4C9621.55,2616.46 9536.23,2625.49 9536.23,2625.49C9536.23,2625.49 9635.31,2601.67 9626.78,2527.32C9618.25,2452.97 9550.15,2402.43 9493.41,2381.46C9463.92,2370.56 9221.4,2374.71 9221.4,2374.71Z"/>
        </g>
    </g>
</svg>
