<?xml version="1.0" encoding="UTF-8" standalone="no"?>
<!DOCTYPE svg PUBLIC "-//W3C//DTD SVG 1.1//EN" "http://www.w3.org/Graphics/SVG/1.1/DTD/svg11.dtd">
<svg width="100%" height="100%" viewBox="0 0 230 1024" version="1.1" xmlns="http://www.w3.org/2000/svg" xmlns:xlink="http://www.w3.org/1999/xlink" xml:space="preserve" xmlns:serif="http://www.serif.com/" style="fill-rule:evenodd;clip-rule:evenodd;stroke-linejoin:round;stroke-miterlimit:2;">
    <g transform="matrix(1,0,0,1,-397,0)">
        <g id="uni00b2" transform="matrix(0.506652,0,0,0.342648,-4018.67,-818.942)">
            <path d="M8716.67,2394.64L8897.6,2394.64C8897.6,2394.64 9018.35,2385.59 9036.41,2431.53C9085.33,2555.99 9095.92,2578.32 9079.47,2635.95C9060.78,2701.46 8996.36,2737.72 8996.36,2737.72L9139.8,2746.54L9168.05,2925.16L8762.06,2925.16L8757.82,2622.72C8777.34,2621.22 8815.73,2618.03 8827.84,2617.01C8849.54,2615.17 8887.02,2611.91 8885.81,2561.7C8885.43,2546.02 8814.53,2543.01 8795.94,2543.33C8783.19,2543.55 8767.07,2544.34 8746.47,2544.15L8716.67,2394.64Z"/>
        </g>
    </g>
</svg>
