<?xml version="1.0" encoding="UTF-8" standalone="no"?>
<!DOCTYPE svg PUBLIC "-//W3C//DTD SVG 1.1//EN" "http://www.w3.org/Graphics/SVG/1.1/DTD/svg11.dtd">
<svg width="100%" height="100%" viewBox="0 0 350 1024" version="1.1" xmlns="http://www.w3.org/2000/svg" xmlns:xlink="http://www.w3.org/1999/xlink" xml:space="preserve" xmlns:serif="http://www.serif.com/" style="fill-rule:evenodd;clip-rule:evenodd;stroke-linejoin:round;stroke-miterlimit:2;">
    <g transform="matrix(1,0,0,1,-337,0)">
        <g id="ydieresis_small" transform="matrix(1,0,0,1,-5212.28,-6761.72)">
            <path d="M5549.97,7229.77L5625.54,7160.29L5764.5,7306.57L5809.6,7187.11L5883.96,7202.96L5898.59,7642.99C5898.59,7642.99 5896.93,7771.22 5760.85,7783.17C5614.04,7796.06 5611.98,7685.92 5610.92,7644.21L5785.23,7628.36L5765.72,7436.99L5549.97,7229.77ZM5669.02,7067.53L5673.98,7134.17L5722.71,7133.85L5722.71,7058.05L5669.02,7067.53ZM5808.3,7129.15L5808.9,7062.07L5745.32,7062.67L5764.61,7130.98L5808.3,7129.15Z"/>
        </g>
    </g>
</svg>
