<?xml version="1.0" encoding="iso-8859-1"?>
<!-- Generator: Adobe Illustrator 21.0.0, SVG Export Plug-In . SVG Version: 6.00 Build 0)  -->
<svg version="1.1" xmlns="http://www.w3.org/2000/svg" xmlns:xlink="http://www.w3.org/1999/xlink" x="0px" y="0px"
	 viewBox="0 0 1000 1000" style="enable-background:new 0 0 1000 1000;" xml:space="preserve">
<g id="Cap_x5F_01_x5F_AE">
	<path style="fill:#222221;" d="M301.766,767.992c-43.35,0-78.49-35.14-78.49-78.49V549.171h0v-8.589h189.48v-32.51h-189.48v-244.24
		h0V123.502c0-43.35,35.14-78.49,78.49-78.49c43.34,0,78.48,35.14,78.48,78.49h32.51c0-61.3-49.69-111-110.99-111
		c-40.445,0-75.836,21.639-95.238,53.967c-19.334-32.605-54.878-54.468-95.533-54.468C49.694,12.001,0,61.695,0,122.995v677.004
		h32.51V540.079h156.97v259.921h32.51v-33.331c20.181,20.859,48.463,33.833,79.777,33.833c61.3,0,110.99-49.7,110.99-111h-32.51
		C380.246,732.852,345.106,767.992,301.766,767.992z M189.479,507.569H32.51V122.995c0-43.346,35.139-78.485,78.485-78.485
		s78.485,35.139,78.485,78.485V507.569z"/>
</g>
<g id="Calque_1">
</g>
</svg>
