<?xml version="1.0" encoding="iso-8859-1"?>
<!-- Generator: Adobe Illustrator 21.0.0, SVG Export Plug-In . SVG Version: 6.00 Build 0)  -->
<svg version="1.1" xmlns="http://www.w3.org/2000/svg" xmlns:xlink="http://www.w3.org/1999/xlink" x="0px" y="0px"
	 viewBox="0 0 1000 1000" style="enable-background:new 0 0 1000 1000;" xml:space="preserve">
<g id="Cap_x5F_13_x5F_M">
	<path style="fill:#222221;" d="M301.761,12.001c-16.42,0-52.007,0-78.485,0v0h-28.883h-3.626v0v0.002v32.51v1.318
		c-20.18-20.857-48.459-33.828-79.772-33.828c-16.421,0-52.007,0-78.485,0v0H3.626H0v0v0.002v32.51v78.484v566.009V800h32.51
		V689.005V122.995V44.512h78.485V44.51c43.346,0,78.485,35.139,78.485,78.485V800h1.288h31.222h1.288V689.005V122.995V44.512h78.485
		V44.51c43.346,0,78.485,35.139,78.485,78.485V800h32.51V122.995C412.756,61.695,363.062,12.001,301.761,12.001z"/>
</g>
<g id="Calque_1">
</g>
</svg>
