<?xml version="1.0" encoding="iso-8859-1"?>
<!-- Generator: Adobe Illustrator 21.0.0, SVG Export Plug-In . SVG Version: 6.00 Build 0)  -->
<svg version="1.1" xmlns="http://www.w3.org/2000/svg" xmlns:xlink="http://www.w3.org/1999/xlink" x="0px" y="0px"
	 viewBox="0 0 1000 1000" style="enable-background:new 0 0 1000 1000;" xml:space="preserve">
<g id="Cap_x5F_01_x5F_&#xE2;">
	<path style="fill:#222221;" d="M110.994,12.001C49.694,12.001,0,61.695,0,122.995v677.004h32.51V540.079h156.97v259.921h32.51
		V122.995C221.989,61.695,172.295,12.001,110.994,12.001z M32.51,507.569V122.995c0-43.346,35.139-78.485,78.485-78.485
		s78.485,35.139,78.485,78.485v384.574H32.51z"/>
	<path style="fill:#222221;" d="M110.995-28.248c10.369,16.945,29.047,28.254,50.367,28.254v-17.282
		c-23.044,0-41.724-18.679-41.725-41.723h-17.282c-0.001,23.044-18.681,41.723-41.725,41.723V0.006
		C81.948,0.006,100.626-11.303,110.995-28.248z"/>
</g>
<g id="Calque_1">
</g>
</svg>
