<?xml version="1.0" encoding="iso-8859-1"?>
<!-- Generator: Adobe Illustrator 21.0.0, SVG Export Plug-In . SVG Version: 6.00 Build 0)  -->
<svg version="1.1" xmlns="http://www.w3.org/2000/svg" xmlns:xlink="http://www.w3.org/1999/xlink" x="0px" y="0px"
	 viewBox="0 0 1000 1000" style="enable-background:new 0 0 1000 1000;" xml:space="preserve">
<g id="Cap_x5F_04_x5F_D">
	<path style="fill:#222221;" d="M189.48,44.51C169.4,24.43,141.65,12,111,12H0v788h111c30.65,0,58.4-12.43,78.48-32.51
		c20.09-20.09,32.51-47.84,32.51-78.49V123C221.99,92.35,209.57,64.6,189.48,44.51z M189.48,689c0,21.67-8.78,41.3-22.99,55.5
		c-14.2,14.21-33.82,22.99-55.49,22.99H32.51V44.51H111c21.67,0,41.29,8.78,55.49,22.99c14.21,14.2,22.99,33.83,22.99,55.5V689z"/>
</g>
<g id="Calque_1">
</g>
</svg>
