<?xml version="1.0" encoding="iso-8859-1"?>
<!-- Generator: Adobe Illustrator 21.0.0, SVG Export Plug-In . SVG Version: 6.00 Build 0)  -->
<svg version="1.1" xmlns="http://www.w3.org/2000/svg" xmlns:xlink="http://www.w3.org/1999/xlink" x="0px" y="0px"
	 viewBox="0 0 1000 1000" style="enable-background:new 0 0 1000 1000;" xml:space="preserve">
<g id="Cap_x5F_15_x5F_OE">
	<path style="fill:#222221;" d="M300.516,767.992c-43.35,0-78.49-35.14-78.49-78.49V549.171h0v-8.589h189.48v-32.51h-189.48v-244.24
		h0V123.502c0-43.35,35.14-78.49,78.49-78.49c43.34,0,78.48,35.14,78.48,78.49h32.51c0-61.3-49.69-111-110.99-111
		c-40.009,0-75.071,21.174-94.605,52.924C186.442,33.395,151.217,12,110.994,12C49.694,12,0,61.694,0,122.995v566.011
		C0,750.306,49.694,800,110.994,800c40.011,0,75.072-21.174,94.603-52.924c19.471,32.03,54.698,53.426,94.918,53.426
		c61.3,0,110.99-49.7,110.99-111h-32.51C378.996,732.852,343.856,767.992,300.516,767.992z M189.479,689.006
		c0,43.346-35.139,78.485-78.485,78.485S32.51,732.352,32.51,689.006V122.994c0-43.346,35.139-78.485,78.485-78.485
		s78.485,35.139,78.485,78.485V689.006z"/>
</g>
<g id="Calque_1">
</g>
</svg>
