<?xml version="1.0" encoding="iso-8859-1"?>
<!-- Generator: Adobe Illustrator 21.0.0, SVG Export Plug-In . SVG Version: 6.00 Build 0)  -->
<svg version="1.1" xmlns="http://www.w3.org/2000/svg" xmlns:xlink="http://www.w3.org/1999/xlink" x="0px" y="0px"
	 viewBox="0 0 1000 1000" style="enable-background:new 0 0 1000 1000;" xml:space="preserve">
<g id="Cap_x5F_17_x5F_Q">
	<path style="fill:#222221;" d="M221.989,122.995C221.989,61.694,172.295,12,110.994,12C49.694,12,0,61.694,0,122.995v566.011
		C0,750.306,49.694,800,110.994,800c18.82,0,36.542-4.69,52.071-12.955l12.954,12.954h45.97L189.48,767.49
		c20.085-20.086,32.509-47.834,32.509-78.484V122.995z M32.509,689.006V122.994c0-43.346,35.139-78.485,78.485-78.485
		c43.346,0,78.485,35.139,78.485,78.485v566.011c0,43.346-35.139,78.485-78.485,78.485C67.648,767.49,32.509,732.352,32.509,689.006
		z"/>
</g>
<g id="Calque_1">
</g>
</svg>
