<?xml version="1.0" encoding="iso-8859-1"?>
<!-- Generator: Adobe Illustrator 21.0.0, SVG Export Plug-In . SVG Version: 6.00 Build 0)  -->
<svg version="1.1" xmlns="http://www.w3.org/2000/svg" xmlns:xlink="http://www.w3.org/1999/xlink" x="0px" y="0px"
	 viewBox="0 0 1000 1000" style="enable-background:new 0 0 1000 1000;" xml:space="preserve">
<g id="Cap_x5F_19_x5F_S">
	<g>
		<path style="fill:#222221;" d="M189.48,461.6l32.51,32.51v194.9C221.99,750.31,172.3,800,111,800S0,750.31,0,689.01h32.51
			c0,43.34,35.14,78.48,78.49,78.48c43.34,0,78.48-35.14,78.48-78.48V507.57L32.51,350.6L0,318.09V123C0,61.7,49.7,12,111,12
			s110.99,49.7,110.99,111h-32.51c0-43.35-35.14-78.49-78.48-78.49c-43.35,0-78.49,35.14-78.49,78.49v181.63L189.48,461.6z"/>
	</g>
</g>
<g id="Calque_1">
</g>
</svg>
