<?xml version="1.0" encoding="iso-8859-1"?>
<!-- Generator: Adobe Illustrator 21.0.0, SVG Export Plug-In . SVG Version: 6.00 Build 0)  -->
<svg version="1.1" xmlns="http://www.w3.org/2000/svg" xmlns:xlink="http://www.w3.org/1999/xlink" x="0px" y="0px"
	 viewBox="0 0 1000 1000" style="enable-background:new 0 0 1000 1000;" xml:space="preserve">
<g id="Cap_x5F_02_x5F_B">
	<path style="fill:#222221;" d="M221.99,122.939c0-61.301-49.694-110.995-110.995-110.995v32.51
		c43.346,0,78.485,35.139,78.485,78.485v384.574H32.51V122.939V44.454h78.481v-32.51H31.672v0.001H0v110.993h0v500.984l0,0l0,0
		v176.02h17.921H32.51h78.485c61.301,0,110.995-49.694,110.995-110.994c0-15.714-0.001-138.398-0.001-148.926h0.001V122.939z
		 M110.995,767.433H32.51v-111v-45.97v-70.441h156.969v148.926h0.001C189.48,732.294,154.341,767.433,110.995,767.433z"/>
</g>
<g id="Calque_1">
</g>
</svg>
