<?xml version="1.0" encoding="iso-8859-1"?>
<!-- Generator: Adobe Illustrator 21.0.0, SVG Export Plug-In . SVG Version: 6.00 Build 0)  -->
<svg version="1.1" xmlns="http://www.w3.org/2000/svg" xmlns:xlink="http://www.w3.org/1999/xlink" x="0px" y="0px"
	 viewBox="0 0 1000 1000" style="enable-background:new 0 0 1000 1000;" xml:space="preserve">
<g id="Cap_x5F_05_x5F_&#xE8;">
	<path style="fill:#222221;" d="M111,767.49c-43.35,0-78.49-35.14-78.49-78.49V548.669h0v-8.589h189.48v-32.51l0,0H32.51v-244.24h0
		V123c0-43.35,35.14-78.49,78.49-78.49c43.34,0,78.48,35.14,78.48,78.49h32.51c0-61.3-49.69-111-110.99-111S0,61.7,0,123v29.168v0
		v111.163v285.339v111.163V689c0,61.3,49.7,111,111,111s110.99-49.7,110.99-111h-32.51C189.48,732.35,154.34,767.49,111,767.49z"/>
	<polygon style="fill:#222221;" points="102.144,0 88.696,-111.002 121.443,-111.002 134.891,0 	"/>
</g>
<g id="Calque_1">
</g>
</svg>
