<?xml version="1.0" encoding="iso-8859-1"?>
<!-- Generator: Adobe Illustrator 21.0.0, SVG Export Plug-In . SVG Version: 6.00 Build 0)  -->
<svg version="1.1" xmlns="http://www.w3.org/2000/svg" xmlns:xlink="http://www.w3.org/1999/xlink" x="0px" y="0px"
	 viewBox="0 0 1000 1000" style="enable-background:new 0 0 1000 1000;" xml:space="preserve">
<g id="Glyph_x5F_OpenBracket">
	<path style="fill:#222221;" d="M135.308,429.031v-4.352h0.104V263.274h0V122.943c0-43.35,35.14-78.49,78.49-78.49v-32.51
		c-61.3,0-111,49.7-111,111v29.168v111.163v161.405h-0.104v4.352v0c0,43.315-35.088,78.432-78.392,78.483
		c-0.031,0-0.062-0.001-0.093-0.001H0v32.513h24.313c0.031,0,0.062-0.001,0.093-0.001c43.303,0.051,78.392,35.168,78.392,78.483v0
		v4.352h-0.001l0.105,36.916v29.168c0,61.3,49.7,111,111,111v-32.51c-43.35,0-78.49-35.14-78.49-78.49l-0.105-66.084h0.001v-4.352
		c0-40.102-21.269-75.233-53.14-94.738C114.039,504.265,135.308,469.133,135.308,429.031z"/>
</g>
<g id="Calque_1">
</g>
</svg>
