<?xml version="1.0" encoding="iso-8859-1"?>
<!-- Generator: Adobe Illustrator 21.0.0, SVG Export Plug-In . SVG Version: 6.00 Build 0)  -->
<svg version="1.1" xmlns="http://www.w3.org/2000/svg" xmlns:xlink="http://www.w3.org/1999/xlink" x="0px" y="0px"
	 viewBox="0 0 1000 1000" style="enable-background:new 0 0 1000 1000;" xml:space="preserve">
<g id="Glyph_x5F_Degree">
	<path style="fill:#222221;" d="M110.998,11.895v-0.002C49.7,11.895,0.002,61.594,0.002,122.892H0
		c0.003,61.298,49.702,110.995,111,110.995v0.002c61.298-0.003,110.995-49.702,110.995-111h0.002
		C221.995,61.592,172.296,11.895,110.998,11.895z M189.485,122.89c0,43.348-35.137,78.487-78.485,78.49v-0.002
		c-43.348,0-78.487-35.137-78.49-78.485h0.002c0-43.348,35.137-78.487,78.485-78.49v0.002c43.348,0,78.487,35.137,78.49,78.485
		H189.485z"/>
</g>
<g id="Calque_1">
</g>
</svg>
