<?xml version="1.0" encoding="iso-8859-1"?>
<!-- Generator: Adobe Illustrator 21.0.0, SVG Export Plug-In . SVG Version: 6.00 Build 0)  -->
<svg version="1.1" xmlns="http://www.w3.org/2000/svg" xmlns:xlink="http://www.w3.org/1999/xlink" x="0px" y="0px"
	 viewBox="0 0 1000 1000" style="enable-background:new 0 0 1000 1000;" xml:space="preserve">
<g id="Glyph_x5F_QuestionMark">
	<g>
		<path style="fill:#222221;" d="M221.994,309.586h-0.002V123.194c0-61.298-49.697-110.997-110.995-111
			c-61.298,0.003-110.995,49.702-110.995,111h32.51c0-43.348,35.137-78.487,78.485-78.49c43.348,0.003,78.485,35.142,78.485,78.49h0
			l-0.005,190.814c-0.042,43.31-35.163,78.408-78.483,78.408v-0.001C49.694,392.415,0,442.109,0,503.41v4.352h32.51v-4.352v0
			c0-43.346,35.139-78.485,78.485-78.485v0.001c61.246,0,110.909-49.598,110.998-110.823l-0.005-0.017
			c0-0.052,0.007-0.096,0.007-0.147V309.586z"/>
		<polygon style="fill:#222221;" points="0.002,799.693 32.511,799.693 32.511,799.693 32.511,767.177 0.002,767.177 		"/>
	</g>
</g>
<g id="Calque_1">
</g>
</svg>
