<?xml version="1.0" encoding="iso-8859-1"?>
<!-- Generator: Adobe Illustrator 21.0.0, SVG Export Plug-In . SVG Version: 6.00 Build 0)  -->
<svg version="1.1" xmlns="http://www.w3.org/2000/svg" xmlns:xlink="http://www.w3.org/1999/xlink" x="0px" y="0px"
	 viewBox="0 0 1000 1000" style="enable-background:new 0 0 1000 1000;" xml:space="preserve">
<g id="Glyph_x5F_Dollar">
	<path style="fill:#222221;" d="M169.894,442.014l30.774-254.012H167.92l-27.235,224.803l-55.944-55.944l20.457-168.859H72.451
		L55.532,327.652L32.51,304.63V123c0-43.35,35.14-78.49,78.49-78.49c43.34,0,78.48,35.14,78.48,78.49h32.51
		c0-61.3-49.69-111-110.99-111C49.7,12,0,61.7,0,123v195.09l32.51,32.51l18.055,18.055L19.629,624h32.748l27.396-226.136
		l55.944,55.944L115.098,624h32.748l17.08-140.984l24.554,24.554v181.44c0,43.34-35.14,78.48-78.48,78.48
		c-43.35,0-78.49-35.14-78.49-78.48H0C0,750.31,49.7,800,111,800c61.3,0,110.99-49.69,110.99-110.99v-194.9l-32.51-32.51
		L169.894,442.014z"/>
</g>
<g id="Calque_1">
</g>
</svg>
