<?xml version="1.0" encoding="iso-8859-1"?>
<!-- Generator: Adobe Illustrator 21.0.0, SVG Export Plug-In . SVG Version: 6.00 Build 0)  -->
<svg version="1.1" xmlns="http://www.w3.org/2000/svg" xmlns:xlink="http://www.w3.org/1999/xlink" x="0px" y="0px"
	 viewBox="0 0 1000 1000" style="enable-background:new 0 0 1000 1000;" xml:space="preserve">
<g id="Glyph_x5F_At">
	<path style="fill:#222221;" d="M483.334,12.502L483.334,12.502l-372.348,0v0C49.689,12.507,0,62.199,0,123.496v566.011
		c0,61.298,49.689,110.99,110.986,110.994v-32.51c-43.342-0.005-78.476-35.142-78.476-78.485V123.496
		c0-43.345,35.137-78.484,78.482-78.485h372.336c43.345,0.001,78.482,35.14,78.482,78.485v566.011
		c0,43.346-35.139,78.485-78.485,78.485c-42.905,0-77.747-34.433-78.452-77.171h-0.242V260.287
		c0-61.301-49.694-110.995-110.995-110.995s-110.995,49.694-110.995,110.995v540.214h32.51V540.581h156.97v150.241h0.226
		c0.706,60.694,50.117,109.68,110.978,109.68c61.301,0,110.995-49.694,110.995-110.994V123.496
		C594.32,62.199,544.631,12.507,483.334,12.502z M372.122,508.071h-156.97V260.287c0-43.346,35.139-78.485,78.485-78.485
		s78.485,35.139,78.485,78.485V508.071z"/>
</g>
<g id="Calque_1">
</g>
</svg>
