<?xml version="1.0" encoding="iso-8859-1"?>
<!-- Generator: Adobe Illustrator 21.0.0, SVG Export Plug-In . SVG Version: 6.00 Build 0)  -->
<svg version="1.1" xmlns="http://www.w3.org/2000/svg" xmlns:xlink="http://www.w3.org/1999/xlink" x="0px" y="0px"
	 viewBox="0 0 1000 1000" style="enable-background:new 0 0 1000 1000;" xml:space="preserve">
<g id="Glyph_x5F_Ampersand">
	<path style="fill:#222221;" d="M221.994,309.895h-0.002V123.503c0-61.298-49.697-110.997-110.995-111
		c-61.298,0.003-110.995,49.702-110.995,111h0.064l35.841,298.482C13.836,442.272,0,471.378,0,503.719v4.352h0.002v41.098v111.163
		V689.5c0,61.3,49.7,111,111,111s110.99-49.7,110.99-111h-32.51c0,43.35-35.14,78.49-78.48,78.49c-0.367,0-0.728-0.023-1.093-0.028
		l-39.777-331.26c11.903-7.273,25.892-11.468,40.862-11.468v0.001c61.246,0,110.909-49.598,110.998-110.823l-0.005-0.017
		c0-0.052,0.007-0.096,0.007-0.147V309.895z M32.512,689.5V549.17v-8.589v-32.51v-0.002H32.51v-4.349v0
		c0-13.068,3.212-25.38,8.862-36.219l35.123,292.505C50.449,747.234,32.512,720.467,32.512,689.5z M189.478,314.318
		c-0.042,43.31-35.163,78.408-78.483,78.408v-0.001c-16.021,0-31.246,3.4-45.001,9.509L32.523,123.49h-0.01
		c0.007-43.342,35.141-78.474,78.484-78.477c43.348,0.003,78.485,35.142,78.485,78.49h0L189.478,314.318z"/>
</g>
<g id="Calque_1">
</g>
</svg>
