<?xml version="1.0" encoding="iso-8859-1"?>
<!-- Generator: Adobe Illustrator 21.0.0, SVG Export Plug-In . SVG Version: 6.00 Build 0)  -->
<svg version="1.1" xmlns="http://www.w3.org/2000/svg" xmlns:xlink="http://www.w3.org/1999/xlink" x="0px" y="0px"
	 viewBox="0 0 1000 1000" style="enable-background:new 0 0 1000 1000;" xml:space="preserve">
<g id="Glyph_x5F_CloseBracket">
	<path style="fill:#222221;" d="M78.594,429.031v-4.352h-0.104V263.274h0V122.943c0-43.35-35.14-78.49-78.49-78.49v-32.51
		c61.3,0,111,49.7,111,111v29.168v111.163v161.405h0.104v4.352v0c0,43.315,35.088,78.432,78.392,78.483
		c0.031,0,0.062-0.001,0.093-0.001h24.313v32.513h-24.313c-0.031,0-0.062-0.001-0.093-0.001
		c-43.303,0.051-78.392,35.168-78.392,78.483v0v4.352h0.001L111,659.776v29.168c0,61.3-49.7,111-111,111v-32.51
		c43.35,0,78.49-35.14,78.49-78.49l0.105-66.084h-0.001v-4.352c0-40.102,21.269-75.233,53.14-94.738
		C99.863,504.265,78.594,469.133,78.594,429.031z"/>
</g>
<g id="Calque_1">
</g>
</svg>
