<?xml version="1.0" encoding="iso-8859-1"?>
<!-- Generator: Adobe Illustrator 21.0.0, SVG Export Plug-In . SVG Version: 6.00 Build 0)  -->
<svg version="1.1" xmlns="http://www.w3.org/2000/svg" xmlns:xlink="http://www.w3.org/1999/xlink" x="0px" y="0px"
	 viewBox="0 0 1000 1000" style="enable-background:new 0 0 1000 1000;" xml:space="preserve">
<g id="Num06_x5F_6">
	<g>
		<path style="fill:#222221;" d="M32.51,122.999L32.51,122.999c0-43.35,35.14-78.49,78.49-78.49c43.34,0,78.48,35.14,78.48,78.49
			h32.51c0-61.3-49.69-111-110.99-111c-61.3,0-111,49.7-111,111v384.568h32.51V122.999z"/>
		<path style="fill:#222221;" d="M189.48,507.569H0.001v31.734H0v149.695c0,61.3,49.69,111,110.99,111c61.3,0,111-49.7,111-111
			v-29.168V548.668v-41.101H189.48V507.569z M189.48,548.668L189.48,548.668l0,140.331c0,43.35-35.14,78.49-78.49,78.49
			c-43.34,0-78.48-35.14-78.48-78.49h0v-148.92H189.48V548.668z"/>
	</g>
</g>
<g id="Calque_1">
</g>
</svg>
