<?xml version="1.0" encoding="iso-8859-1"?>
<!-- Generator: Adobe Illustrator 21.0.0, SVG Export Plug-In . SVG Version: 6.00 Build 0)  -->
<svg version="1.1" xmlns="http://www.w3.org/2000/svg" xmlns:xlink="http://www.w3.org/1999/xlink" x="0px" y="0px"
	 viewBox="0 0 1000 1000" style="enable-background:new 0 0 1000 1000;" xml:space="preserve">
<g id="Num09_x5F_9">
	<path style="fill:#222221;" d="M221.99,508.788V122.944c0-61.3-49.69-111-110.99-111c-61.3,0-111,49.7-111,111v29.168v388.413
		h32.509v-0.002H189.48v148.422h0c0,43.35-35.14,78.49-78.49,78.49c-43.34,0-78.48-35.14-78.48-78.49H0c0,61.3,49.69,111,110.99,111
		c61.3,0,111-49.7,111-111V529.768h-0.001L221.99,508.788L221.99,508.788z M32.51,122.944c0-43.35,35.14-78.49,78.49-78.49
		c43.34,0,78.48,35.14,78.48,78.49h0v385.069H32.509L32.51,122.944z"/>
</g>
<g id="Calque_1">
</g>
</svg>
