<?xml version="1.0" encoding="iso-8859-1"?>
<!-- Generator: Adobe Illustrator 21.0.0, SVG Export Plug-In . SVG Version: 6.00 Build 0)  -->
<svg version="1.1" xmlns="http://www.w3.org/2000/svg" xmlns:xlink="http://www.w3.org/1999/xlink" x="0px" y="0px"
	 viewBox="0 0 1000 1000" style="enable-background:new 0 0 1000 1000;" xml:space="preserve">
<g id="Num03_x5F_3">
	<path style="fill:#222221;" d="M110.99,767.488c43.35,0,78.49-35.14,78.49-78.49V548.668h0v-8.589H0.001v-32.509l0,0h189.48
		v-244.24h0V122.998c0-43.35-35.14-78.49-78.49-78.49c-43.34,0-78.48,35.14-78.48,78.49H0c0-61.3,49.69-111,110.99-111
		s111,49.7,111,111v29.168v0v111.163v285.338v111.163v29.168c0,61.3-49.7,111-111,111S0,750.298,0,688.998h32.51
		C32.51,732.348,67.65,767.488,110.99,767.488z"/>
</g>
<g id="Calque_1">
</g>
</svg>
