<?xml version="1.0" encoding="iso-8859-1"?>
<!-- Generator: Adobe Illustrator 21.0.0, SVG Export Plug-In . SVG Version: 6.00 Build 0)  -->
<svg version="1.1" xmlns="http://www.w3.org/2000/svg" xmlns:xlink="http://www.w3.org/1999/xlink" x="0px" y="0px"
	 viewBox="0 0 1000 1000" style="enable-background:new 0 0 1000 1000;" xml:space="preserve">
<g id="Num08_x5F_8">
	<path style="fill:#222221;" d="M110.99,11.943C49.691,11.943,0.002,61.641,0,122.939l0,0v566.004c0,61.3,49.69,111,110.99,111
		s111-49.7,111-111v-29.168V548.613V263.274V152.111v0v-29.168C221.99,61.643,172.29,11.943,110.99,11.943z M189.48,548.613
		L189.48,548.613l0,140.331c0,43.35-35.14,78.49-78.49,78.49c-43.34,0-78.48-35.14-78.48-78.49h0v-148.92H189.48V548.613z
		 M189.48,507.514H32.51v-384.57h0c0-43.35,35.14-78.49,78.48-78.49c43.35,0,78.49,35.14,78.49,78.49v140.331h0V507.514z"/>
</g>
<g id="Calque_1">
</g>
</svg>
